<svg xmlns="http://www.w3.org/2000/svg" viewBox="0 0 64 64" role="img" aria-label="TikTok">
  <path fill="#25F4EE" d="M42.1 10.6c1.1 6.1 4.7 10.3 10.3 11.3v8.2c-3.7.2-7.2-.8-10.2-2.8v13.2c0 8.9-5.7 14-13.5 14-7.3 0-12.8-5.1-12.8-11.9 0-7.8 6.4-12.4 14.8-11.4v8.3c-3.4-.8-5.8.6-5.8 3.1 0 2.1 1.6 3.5 4 3.5 2.8 0 4.6-1.7 4.6-5.5v-30h8.6Z" opacity=".9"/>
  <path fill="#FE2C55" d="M38.8 8.5c1.1 6.1 4.7 10.3 10.3 11.3V28c-3.7.2-7.2-.8-10.2-2.8v13.2c0 8.9-5.7 14-13.5 14-7.3 0-12.8-5.1-12.8-11.9 0-7.8 6.4-12.4 14.8-11.4v8.3c-3.4-.8-5.8.6-5.8 3.1 0 2.1 1.6 3.5 4 3.5 2.8 0 4.6-1.7 4.6-5.5v-30h8.6Z"/>
  <path fill="#111111" d="M40.7 9.5c1.1 6.1 4.7 10.3 10.3 11.3V29c-3.7.2-7.2-.8-10.2-2.8v13.2c0 8.9-5.7 14-13.5 14-7.3 0-12.8-5.1-12.8-11.9 0-7.8 6.4-12.4 14.8-11.4v8.3c-3.4-.8-5.8.6-5.8 3.1 0 2.1 1.6 3.5 4 3.5 2.8 0 4.6-1.7 4.6-5.5v-30h8.6Z"/>
</svg>
